HIERARCHY
ROOT Hips
{
	OFFSET 0.00000 0.00000 0.00000
	CHANNELS 6 Xposition Yposition Zposition Zrotation Yrotation Xrotation 
	JOINT LHipJoint
	{
		OFFSET 0 0 0
		CHANNELS 3 Zrotation Yrotation Xrotation
		JOINT LeftHip
		{
			OFFSET 1.53139 -1.83434 0.76626
			CHANNELS 3 Zrotation Yrotation Xrotation
			JOINT LeftKnee
			{
				OFFSET 2.56112 -7.03663 0.00000
				CHANNELS 3 Zrotation Yrotation Xrotation
				JOINT LeftAnkle
				{
					OFFSET 2.59983 -7.14299 0.00000
					CHANNELS 3 Zrotation Yrotation Xrotation
					JOINT LeftToe
					{
						OFFSET 0.13742 -0.37757 2.00054
						CHANNELS 3 Zrotation Yrotation Xrotation
						End Site
						{
							OFFSET 0.00000 -0.00000 1.02897
						}
					}
				}
			}
		}
	}
	JOINT RHipJoint
	{
		OFFSET 0 0 0
		CHANNELS 3 Zrotation Yrotation Xrotation
		JOINT RightHip
		{
			OFFSET -1.40122 -1.83435 0.76627
			CHANNELS 3 Zrotation Yrotation Xrotation
			JOINT RightKnee
			{
				OFFSET -2.54052 -6.98003 0.00000
				CHANNELS 3 Zrotation Yrotation Xrotation
				JOINT RightAnkle
				{
					OFFSET -2.63179 -7.23079 0.00000
					CHANNELS 3 Zrotation Yrotation Xrotation
					JOINT RightToe
					{
						OFFSET -0.24131 -0.66299 2.03908
						CHANNELS 3 Zrotation Yrotation Xrotation
						End Site
						{
							OFFSET -0.00000 -0.00000 1.07391
						}
					}
				}
			}
		}
	}
	JOINT lowerback
	{
		OFFSET 0 0 0
		CHANNELS 3 Zrotation Yrotation Xrotation
		JOINT Chest
		{
			OFFSET 0.01174 2.10302 -0.29778
			CHANNELS 3 Zrotation Yrotation Xrotation
			JOINT Chest2
			{
				OFFSET 0.00772 2.13227 -0.01247
				CHANNELS 3 Zrotation Yrotation Xrotation
				JOINT lowerneck
				{
					OFFSET 0 0 0
					CHANNELS 3 Zrotation Yrotation Xrotation
					JOINT Neck
					{
						OFFSET -0.09219 1.60848 0.31481
						CHANNELS 3 Zrotation Yrotation Xrotation
						JOINT Head
						{
							OFFSET 0.13974 1.65456 -0.31134
							CHANNELS 3 Zrotation Yrotation Xrotation
							End Site
							{
								OFFSET 0.04742 1.69515 -0.14578
							}
						}
					}
				}
				JOINT LeftCollar
				{
					OFFSET 0 0 0
					CHANNELS 3 Zrotation Yrotation Xrotation
					JOINT LeftShoulder
					{
						OFFSET 3.24909 1.02882 -0.23993
CHANNELS 3 Zrotation Xrotation Yrotation
						JOINT LeftElbow
						{
OFFSET 0 -5.329550 -0.000000
CHANNELS 3 Zrotation Xrotation Yrotation
							JOINT LeftWrist
							{
OFFSET 0 -3.692320 -0.000000
CHANNELS 3 Zrotation Xrotation Yrotation
								JOINT lhand
								{
									OFFSET 0 0 0
CHANNELS 3 Zrotation Xrotation Yrotation
									JOINT LFingers
									{
OFFSET 0 -0.536600 -0.000000
CHANNELS 3 Zrotation Xrotation Yrotation
										End Site
										{
OFFSET 0 -0.432620 -0.000000
										}
									}
								}
								JOINT LThumb
								{
OFFSET 0 0.000000 0.000000
CHANNELS 3 Zrotation Xrotation Yrotation
									End Site
									{
OFFSET 0 -0.439220 0.439220
									}
								}
							}
						}
					}
				}
				JOINT RightCollar
				{
					OFFSET 0 0 0
					CHANNELS 3 Zrotation Yrotation Xrotation
					JOINT RightShoulder
					{
						OFFSET -3.21387 0.93002 -0.34594
CHANNELS 3 Zrotation Xrotation Yrotation
						JOINT RightElbow
						{
OFFSET 0 -5.234310 0.000000
CHANNELS 3 Zrotation Xrotation Yrotation
							JOINT RightWrist
							{
OFFSET 0 -3.553010 -0.000000
CHANNELS 3 Zrotation Xrotation Yrotation
								JOINT rhand
								{
									OFFSET 0 0 0
CHANNELS 3 Zrotation Xrotation Yrotation
									JOINT RFingers
									{
OFFSET 0 -0.772520 -0.000000
CHANNELS 3 Zrotation Xrotation Yrotation
										End Site
										{
OFFSET 0 -0.622830 -0.000000
										}
									}
								}
								JOINT RThumb
								{
OFFSET 0 0.000000 0.000000
CHANNELS 3 Zrotation Xrotation Yrotation
									End Site
									{
OFFSET 0 -0.632340 0.632340
									}
								}
							}
						}
					}
				}
			}
		}
	}
}
MOTION
Frames: 6
Frame Time: 0.008333333333333333
-14.847500 17.901400 10.060900 1.561100 -32.753800 -0.613600 0.000000 0.000000 0.000000 -20.161400 -8.156900 -11.912600 1.986600 8.838100 25.290200 0.037600 -5.210600 -4.748600 0.007900 -0.573200 -1.575000 0.000000 0.000000 0.000000 23.972500 2.619500 -14.140700 -2.691500 -10.178000 29.555100 -0.431500 -2.846000 -13.778700 -0.208700 -2.941300 8.115200 0.826200 1.728000 12.480000 -0.273500 2.387300 0.052000 -1.188300 1.128100 -6.906000 -8.686100 0.360900 -23.379600 2.063000 3.352700 35.488400 3.087800 0.394300 16.576100 0.000000 -0.000000 0.000000 1.864800 -1.382600 -23.175900 18.187100 -28.396100 4.637900 20.985900 14.469600 -24.759800 0.000000 0.000000 0.000000 -7.125000 0.000000 0.000000 -9.285400 56.027200 2.527200 0.000000 -0.000000 0.000000 1.552100 4.299800 14.054700 -17.527200 -27.547500 -4.328300 -12.783200 4.561200 -7.845800 0.000000 0.000000 0.000000 7.125000 0.000000 -0.000000 10.193200 21.979900 5.726200
-14.828108 17.905267 9.758779 1.172809 -29.720945 0.147492 0.000000 0.000000 0.000000 -18.427389 -11.580568 -14.311890 2.491164 9.821182 28.400128 0.013402 -7.559485 -5.588115 0.275157 -3.374107 -9.322006 0.000000 0.000000 0.000000 24.467000 0.329772 -16.336960 -2.607617 -10.031001 29.077240 -0.378576 -2.452484 -12.781910 -0.148989 -2.484870 6.847925 2.624807 2.707564 13.401075 -0.392615 3.949867 0.590757 -2.634674 1.835223 -6.679327 -6.946758 5.281984 -23.401462 0.850629 10.936070 38.932865 3.915919 3.330353 18.055335 0.000000 0.000000 0.000000 1.526261 -2.852304 -23.693189 19.399022 -29.911385 5.228424 20.920491 12.171812 -24.626724 0.000000 0.000000 0.000000 -7.125000 0.000000 0.000000 -9.295457 55.877793 2.496187 0.000000 0.000000 0.000000 1.531013 4.429910 13.492891 -18.210401 -28.425536 -4.649039 -12.542234 4.594402 -8.366502 0.000000 0.000000 0.000000 7.125000 0.000000 0.000000 10.340857 21.464351 5.934860
-14.763860 17.971892 9.484167 1.030200 -29.393005 -0.124396 0.000000 0.000000 0.000000 -17.349178 -12.668206 -15.763206 4.106283 12.298342 36.799028 0.124919 -8.235093 -8.025044 0.827604 -5.803869 -16.216307 0.000000 0.000000 0.000000 24.712462 -1.697894 -16.828335 -2.329356 -9.520787 27.438469 -0.316543 -0.621824 -10.870843 -0.258878 -3.271909 9.036867 4.167022 4.518149 14.287952 -0.853817 6.557495 1.377207 -4.466955 3.092405 -5.941596 -5.527086 9.523464 -20.508177 0.173080 17.182367 40.460515 4.497356 5.949406 18.059327 0.000000 0.000000 0.000000 2.058333 -3.241481 -25.103820 19.915621 -30.540536 5.488417 23.627251 9.366932 -23.186597 0.000000 0.000000 0.000000 -7.125000 0.000000 0.000000 -5.884546 54.940566 1.439726 0.000000 0.000000 0.000000 0.626238 4.414768 15.256585 -18.652074 -28.984017 -4.861125 -12.070527 3.805537 -8.239888 0.000000 0.000000 0.000000 7.125000 0.000000 0.000000 10.686133 21.608866 6.103661
-14.635298 18.064203 9.232780 1.014558 -29.456664 -0.586591 0.000000 0.000000 0.000000 -16.959568 -15.190414 -14.803175 6.665793 15.043715 47.598320 -0.008570 -8.396302 -5.711318 0.368505 -3.898520 -10.791316 0.000000 0.000000 0.000000 24.877901 -3.525166 -16.577370 -1.899561 -8.653684 24.718070 -0.215528 -0.035890 -8.782316 -0.427949 -4.198164 11.634833 5.310361 5.873484 14.923650 -1.529398 8.508937 1.586517 -6.180817 4.037828 -5.596199 -5.168904 11.984092 -18.841450 1.382238 20.832083 43.584905 5.744137 7.444132 19.130333 0.000000 0.000000 0.000000 2.899825 -1.170221 -23.038539 19.742813 -30.331171 5.400885 22.621437 10.349405 -24.292004 0.000000 0.000000 0.000000 -7.125000 0.000000 0.000000 -7.363956 55.885677 1.974322 0.000000 0.000000 0.000000 -0.217164 4.123615 15.501702 -18.671800 -29.008884 -4.870692 -10.718594 4.335790 -8.319617 0.000000 0.000000 0.000000 7.125000 0.000000 0.000000 11.650773 21.577454 6.686150
-14.436153 18.121459 9.011783 1.160947 -30.175186 -0.602795 0.000000 0.000000 0.000000 -17.560694 -16.352495 -11.481416 8.334105 16.359440 53.757225 -0.391909 -12.555242 -1.844782 1.750346 -8.315863 -23.683240 0.000000 0.000000 0.000000 24.704607 -4.750670 -17.411968 -1.656502 -8.110651 23.050629 -0.121484 0.882574 -6.329244 -0.403730 -4.079330 11.299939 6.150133 6.964880 14.561122 -2.446884 10.016296 1.641422 -7.756333 4.811673 -4.819670 -4.681965 13.405229 -18.129052 1.616798 23.006207 44.504771 6.184069 8.364043 19.426602 0.000000 0.000000 0.000000 3.848073 1.318449 -18.094773 18.495551 -28.786737 4.785596 22.472805 12.930650 -25.409327 0.000000 0.000000 0.000000 -7.125000 0.000000 0.000000 -7.995621 57.007171 2.363478 0.000000 0.000000 0.000000 -0.663474 4.353036 15.426780 -20.545643 -31.293914 -5.812268 -12.125534 2.644944 -5.996548 0.000000 0.000000 0.000000 7.125000 0.000000 0.000000 10.781593 23.860154 5.594514
-14.175140 18.111901 8.721038 1.806094 -30.240724 -1.123837 0.000000 0.000000 0.000000 -18.634063 -15.648859 -7.276445 8.622291 16.558391 54.774373 -1.129228 -18.599527 9.799326 0.626734 -5.063314 -14.089812 0.000000 0.000000 0.000000 23.915548 -4.564740 -18.918824 -1.710856 -8.235842 23.432818 -0.072374 0.928885 -4.835922 -0.501293 -4.538101 12.595725 5.771294 7.582421 14.558992 -3.039249 10.741347 1.626069 -8.270184 5.188093 -4.663834 -4.518128 14.230600 -18.263988 2.192871 24.150112 44.903646 6.661205 8.893639 19.527084 0.000000 0.000000 0.000000 3.739428 3.539694 -10.359174 16.565711 -26.281495 3.893206 22.570642 14.136164 -22.549913 0.000000 0.000000 0.000000 -7.125000 0.000000 0.000000 -6.761059 54.065096 1.514651 0.000000 0.000000 0.000000 -2.023783 4.670601 14.713110 -22.139773 -33.134570 -6.662071 -13.554591 -0.375403 -8.646873 0.000000 0.000000 0.000000 7.125000 0.000000 0.000000 9.601716 21.139745 5.569951
